<svg id="visual" viewBox="0 0 900 675" width="900" height="675" xmlns="http://www.w3.org/2000/svg" xmlns:xlink="http://www.w3.org/1999/xlink" version="1.1"><rect x="0" y="0" width="900" height="675" fill="#33b7f3"></rect><path d="M0 609L15 605.2C30 601.3 60 593.7 90 592.3C120 591 150 596 180 603C210 610 240 619 270 618.8C300 618.7 330 609.3 360 610.7C390 612 420 624 450 625.2C480 626.3 510 616.7 540 608.5C570 600.3 600 593.7 630 593.8C660 594 690 601 720 605.8C750 610.7 780 613.3 810 614.3C840 615.3 870 614.7 885 614.3L900 614L900 676L885 676C870 676 840 676 810 676C780 676 750 676 720 676C690 676 660 676 630 676C600 676 570 676 540 676C510 676 480 676 450 676C420 676 390 676 360 676C330 676 300 676 270 676C240 676 210 676 180 676C150 676 120 676 90 676C60 676 30 676 15 676L0 676Z" fill="#1D1D1D" stroke-linecap="round" stroke-linejoin="miter"></path></svg>